<svg width="42" height="42" fill="none" xmlns="http://www.w3.org/2000/svg"><path d="M12.223 11.688h17.5c.204 0 .408.012.611.038a3.61 3.61 0 0 0-4.239-3.038l-14.392 2.457h-.016a3.61 3.61 0 0 0-2.246 1.429 4.789 4.789 0 0 1 2.782-.886ZM29.723 13h-17.5a3.504 3.504 0 0 0-3.5 3.5V27a3.504 3.504 0 0 0 3.5 3.5h17.5a3.504 3.504 0 0 0 3.5-3.5V16.5a3.504 3.504 0 0 0-3.5-3.5Zm-2.598 10.5a1.75 1.75 0 1 1 0-3.5 1.75 1.75 0 0 1 0 3.5Z" fill="#88889F"/><path d="M8.75 20.191V14.75c0-1.185.656-3.172 2.934-3.602 1.933-.363 3.847-.363 3.847-.363s1.258.875.219.875c-1.04 0-1.012 1.34 0 1.34s0 1.285 0 1.285l-4.074 4.621-2.926 1.285Z" fill="#88889F"/></svg>