<svg width="42" height="42" fill="none" xmlns="http://www.w3.org/2000/svg"><path d="M24.984 15.575a1.459 1.459 0 1 0 .001 2.917 1.459 1.459 0 0 0-.001-2.918Z" fill="#7171E2"/><path d="M33.11 9.738v-.005a1.116 1.116 0 0 0-.827-.837c-1.63-.398-4.194.026-7.035 1.164-2.863 1.148-5.546 2.843-7.36 4.66a17.552 17.552 0 0 0-1.616 1.85c-1.22-.054-2.296.12-3.203.515-3.157 1.39-4.06 4.946-4.3 6.406a1.367 1.367 0 0 0 1.488 1.586h.007l3.517-.384.013.124c.046.428.237.828.542 1.133l1.716 1.718c.305.305.704.496 1.133.541l.118.013-.383 3.513v.007a1.369 1.369 0 0 0 1.346 1.508c.076 0 .152-.006.227-.019 1.468-.236 5.023-1.127 6.409-4.301.392-.9.565-1.972.516-3.19a17.216 17.216 0 0 0 1.857-1.617c1.828-1.819 3.529-4.48 4.665-7.302 1.132-2.808 1.558-5.391 1.17-7.083ZM27.255 19.3a3.213 3.213 0 1 1 0-4.542 3.188 3.188 0 0 1 0 4.542Z" fill="#7171E2"/><path d="M15.856 28.133a.876.876 0 0 0-.602.146c-.35.24-.7.476-1.055.706-.717.466-1.574-.352-1.148-1.094l.664-1.148a.875.875 0 0 0-.829-1.362 3.35 3.35 0 0 0-1.948.954c-.2.201-.81.81-1.137 3.132a19.576 19.576 0 0 0-.176 2.01.875.875 0 0 0 .875.898h.022a19.681 19.681 0 0 0 2.012-.175c2.323-.328 2.932-.937 3.132-1.138a3.308 3.308 0 0 0 .951-1.954.875.875 0 0 0-.761-.975Z" fill="#7171E2"/></svg>