<svg width="42" height="42" fill="none" xmlns="http://www.w3.org/2000/svg"><path d="M14.6 11.904a1.338 1.338 0 0 0-.07-1.966A3.917 3.917 0 0 0 12 9l-.204.006h-.03C9.65 9.134 8 10.972 8.004 13.187c0 1.188.5 1.817.895 2.32a1.29 1.29 0 0 0 .92.487c.015 0 .043.004.124.004a1.192 1.192 0 0 0 .86-.369l3.796-3.725Zm15.637-2.897L30.033 9H30a3.917 3.917 0 0 0-2.532.937 1.34 1.34 0 0 0-.07 1.965l3.798 3.728a1.193 1.193 0 0 0 .862.369c.08 0 .108 0 .125-.003a1.288 1.288 0 0 0 .918-.488c.398-.503.893-1.13.895-2.319.004-2.218-1.646-4.056-3.76-4.183Z" fill="#88889F"/><path d="M21.004 11c-6.062 0-11 4.934-11 11a10.952 10.952 0 0 0 2.551 7.035l-2.258 2.258a1 1 0 1 0 1.415 1.414l2.257-2.258a10.977 10.977 0 0 0 14.07 0l2.258 2.258a1.001 1.001 0 1 0 1.415-1.414l-2.258-2.258A10.948 10.948 0 0 0 32.004 22c0-6.063-4.934-11-11-11Zm1 11a1 1 0 0 1-1 1h-5a1 1 0 0 1 0-2h4v-6a1 1 0 0 1 2 0v7Z" fill="#88889F"/></svg>