<svg width="42" height="42" fill="none" xmlns="http://www.w3.org/2000/svg"><path d="M12.95 26.6h2.1v-.35c0-1.657.577-3.063 1.732-4.218C17.938 20.878 19.343 20.3 21 20.3s3.063.578 4.218 1.732c1.154 1.155 1.732 2.561 1.732 4.218v.35h2.1v-.35c0-2.24-.782-4.142-2.345-5.705C25.142 18.982 23.24 18.2 21 18.2s-4.142.782-5.705 2.345c-1.563 1.563-2.345 3.465-2.345 5.705v.35Zm1.19-9.45c.957-.14 1.966-.513 3.027-1.12 1.062-.607 1.908-1.295 2.538-2.065l-1.61-1.33c-.467.56-1.114 1.073-1.942 1.54-.829.467-1.593.758-2.293.875l.28 2.1Zm13.72 0 .28-2.1c-.7-.117-1.464-.408-2.293-.875-.828-.467-1.475-.98-1.942-1.54l-1.61 1.33c.63.77 1.476 1.458 2.537 2.065 1.062.607 2.071.98 3.028 1.12ZM21 35c-1.937 0-3.757-.367-5.46-1.102a14.138 14.138 0 0 1-4.445-2.993 14.138 14.138 0 0 1-2.993-4.445C7.367 24.757 7 22.937 7 21c0-1.937.367-3.757 1.102-5.46a14.138 14.138 0 0 1 2.993-4.445 14.138 14.138 0 0 1 4.445-2.993C17.243 7.367 19.063 7 21 7c1.937 0 3.757.367 5.46 1.102a14.138 14.138 0 0 1 4.445 2.993 14.138 14.138 0 0 1 2.992 4.445C34.633 17.243 35 19.063 35 21c0 1.937-.367 3.757-1.102 5.46a14.138 14.138 0 0 1-2.993 4.445 14.138 14.138 0 0 1-4.445 2.992C24.757 34.633 22.937 35 21 35Z" fill="#88889F"/></svg>