<svg width="42" height="42" fill="none" xmlns="http://www.w3.org/2000/svg"><path d="M21 28.792a7.5 7.5 0 0 0 4.374-1.364 7.77 7.77 0 0 0 2.85-3.595h-14.45a7.77 7.77 0 0 0 2.852 3.595A7.5 7.5 0 0 0 21 28.792Zm-5.95-9.209 1.558-1.487 1.488 1.487 1.487-1.487-2.975-3.046-3.046 3.046 1.488 1.487Zm8.854 0 1.488-1.487 1.558 1.487 1.487-1.487-3.045-3.046-2.975 3.046 1.487 1.487ZM21 35.167c-1.96 0-3.802-.372-5.525-1.116a14.307 14.307 0 0 1-4.498-3.028 14.306 14.306 0 0 1-3.028-4.498C7.205 24.801 6.833 22.96 6.833 21c0-1.96.372-3.801 1.116-5.525a14.306 14.306 0 0 1 3.028-4.498 14.306 14.306 0 0 1 4.498-3.028C17.198 7.205 19.04 6.833 21 6.833c1.96 0 3.801.372 5.525 1.116a14.306 14.306 0 0 1 4.498 3.028 14.307 14.307 0 0 1 3.028 4.498c.744 1.724 1.116 3.565 1.116 5.525 0 1.96-.372 3.801-1.116 5.525a14.307 14.307 0 0 1-3.028 4.498 14.307 14.307 0 0 1-4.498 3.028c-1.724.744-3.565 1.116-5.525 1.116Z" fill="#7171E2"/></svg>