<svg width="42" height="42" viewBox="0 0 42 42" fill="none" xmlns="http://www.w3.org/2000/svg">
<path d="M34.7355 31.0537L22.9483 9.16399C22.1128 7.612 19.8872 7.612 19.051 9.16399L7.26449 31.0537C7.08309 31.3906 6.99215 31.7688 7.00053 32.1513C7.00892 32.5339 7.11635 32.9078 7.31234 33.2364C7.50833 33.5651 7.78619 33.8373 8.11879 34.0265C8.45138 34.2157 8.82736 34.3155 9.21001 34.316H32.7865C33.1695 34.3161 33.5459 34.2167 33.879 34.0278C34.212 33.8388 34.4904 33.5666 34.6868 33.2379C34.8832 32.9091 34.9909 32.5351 34.9994 32.1522C35.008 31.7694 34.917 31.3908 34.7355 31.0537ZM21 30.9271C20.7264 30.9271 20.459 30.846 20.2315 30.694C20.004 30.542 19.8268 30.326 19.7221 30.0732C19.6174 29.8204 19.59 29.5423 19.6433 29.274C19.6967 29.0057 19.8285 28.7592 20.0219 28.5658C20.2154 28.3723 20.4618 28.2406 20.7301 28.1872C20.9985 28.1338 21.2766 28.1612 21.5293 28.2659C21.7821 28.3706 21.9981 28.5479 22.1501 28.7754C22.3021 29.0028 22.3832 29.2703 22.3832 29.5439C22.3832 29.7255 22.3475 29.9054 22.2779 30.0732C22.2084 30.241 22.1065 30.3935 21.9781 30.522C21.8496 30.6504 21.6972 30.7523 21.5293 30.8218C21.3615 30.8913 21.1816 30.9271 21 30.9271ZM22.5022 17.0152L22.1052 25.4529C22.1052 25.7464 21.9886 26.0279 21.7811 26.2354C21.5736 26.4429 21.2921 26.5595 20.9986 26.5595C20.7051 26.5595 20.4237 26.4429 20.2161 26.2354C20.0086 26.0279 19.892 25.7464 19.892 25.4529L19.495 17.0187C19.4861 16.8171 19.5179 16.6159 19.5884 16.4268C19.6589 16.2378 19.7668 16.065 19.9055 15.9185C20.0443 15.7721 20.2111 15.6551 20.3961 15.5745C20.581 15.4939 20.7803 15.4513 20.982 15.4494H20.9965C21.1996 15.4493 21.4007 15.4903 21.5875 15.5701C21.7743 15.6498 21.943 15.7665 22.0835 15.9132C22.2239 16.06 22.3332 16.2336 22.4047 16.4237C22.4762 16.6138 22.5084 16.8165 22.4994 17.0194L22.5022 17.0152Z" fill="#88889F"/>
</svg>
