<svg width="42" height="42" fill="none" xmlns="http://www.w3.org/2000/svg"><path d="M34.942 11.96a1 1 0 0 0-.822-.921c-5.406-.97-7.663-1.671-12.708-3.95a1 1 0 0 0-.824 0c-5.045 2.279-7.302 2.98-12.708 3.95a1 1 0 0 0-.822.921c-.241 3.82.272 7.378 1.527 10.578a21.843 21.843 0 0 0 4.477 7.032c3.342 3.546 6.89 5.086 7.567 5.358a1 1 0 0 0 .75 0c.677-.272 4.226-1.812 7.567-5.358a21.84 21.84 0 0 0 4.47-7.032c1.254-3.2 1.767-6.758 1.526-10.578Zm-8.187 4.695-6.926 8a1 1 0 0 1-.713.346h-.041a1 1 0 0 1-.7-.286L15.3 21.702a1.002 1.002 0 0 1 .69-1.714 1 1 0 0 1 .71.286l2.312 2.268 6.232-7.196a1 1 0 1 1 1.512 1.309h-.001Z" fill="#7171E2"/></svg>