<svg width="80" height="80" fill="none" xmlns="http://www.w3.org/2000/svg"><path d="M.341 17.835C.49 8.236 8.236.49 17.836.341L40 0l22.164.341c9.6.148 17.347 7.895 17.495 17.495L80 40l-.341 22.164c-.148 9.6-7.895 17.347-17.495 17.495L40 80l-22.165-.341C8.236 79.51.49 71.764.341 62.163L0 40l.341-22.165Z" fill="#26C177"/><path d="M34.34 50.857h19m0 0-8.144-8.143m8.143 8.143L45.196 59m-8.142-29.857h27.142m0 0L56.054 21m8.142 8.143-8.142 8.142m-38 13.572h.027m2.687-21.714h.027m8.116 0h.027m-2.741 21.714h.027" stroke="#fff" stroke-width="5.429" stroke-linecap="round" stroke-linejoin="round"/></svg>