<svg width="296" height="296" fill="none" xmlns="http://www.w3.org/2000/svg"><g filter="url(#a)"><path d="M148 50c-41.355 0-75 33.649-75 75 0 41.416 33.584 75 75 75 41.355 0 75-33.645 75-75 0-41.42-33.581-75-75-75Zm0 112.861a33.894 33.894 0 0 1 0-67.789h1.518l-5.088-5.084a5.05 5.05 0 0 1 0-7.14 5.05 5.05 0 0 1 7.14 0l14.423 14.424a5.049 5.049 0 0 1 0 7.139l-14.423 14.423a5.049 5.049 0 1 1-7.14-7.139l6.491-6.491c-.859-.036-1.839-.036-2.921-.036a23.8 23.8 0 0 0-23.341 28.441 23.798 23.798 0 0 0 47.139-4.643 5.048 5.048 0 0 1 10.096 0A33.936 33.936 0 0 1 148 162.861Z" fill="#fff"/></g><defs><filter id="a" x=".6" y=".6" width="294.8" height="294.8" filterUnits="userSpaceOnUse" color-interpolation-filters="sRGB"><feFlood flood-opacity="0" result="BackgroundImageFix"/><feColorMatrix in="SourceAlpha" values="0 0 0 0 0 0 0 0 0 0 0 0 0 0 0 0 0 0 127 0" result="hardAlpha"/><feOffset dy="23"/><feGaussianBlur stdDeviation="36.2"/><feComposite in2="hardAlpha" operator="out"/><feColorMatrix values="0 0 0 0 0.856006 0 0 0 0 0.735491 0 0 0 0 0.735491 0 0 0 0.35 0"/><feBlend in2="BackgroundImageFix" result="effect1_dropShadow_2454_507"/><feBlend in="SourceGraphic" in2="effect1_dropShadow_2454_507" result="shape"/></filter></defs></svg>