<svg width="104" height="34" fill="none" xmlns="http://www.w3.org/2000/svg"><path d="M2.508 6.492V2.731h11.369v9.751h.808v4.24h-1.551V14H2.425v2.723H.875v-4.241H1.7c.209-.726.395-1.721.56-2.986.166-1.277.248-2.278.248-3.004Zm9.686-2.244H4.19v2.244c0 .859-.066 1.876-.198 3.053s-.302 2.156-.511 2.937h8.711V4.249ZM29.448 10.7c0 1.111-.308 1.942-.924 2.492-.605.538-1.496.808-2.673.808h-9.059V2.714h8.663c1.155 0 2.04.275 2.656.825.616.55.924 1.342.924 2.376 0 1.133-.423 1.859-1.27 2.178.484.165.869.44 1.155.825.352.473.528 1.067.528 1.782Zm-2.08-4.785c0-.517-.131-.913-.395-1.188-.32-.33-.825-.495-1.518-.495h-6.98v3.201h6.98c.715 0 1.21-.121 1.485-.363.286-.253.429-.638.429-1.155Zm-8.893 3.036v3.531h7.36c.637 0 1.116-.16 1.435-.478.33-.33.495-.76.495-1.287 0-.518-.165-.941-.495-1.271-.33-.33-.809-.495-1.436-.495h-7.359Zm27.471-6.237V14h-1.683V4.199L34.661 14h-2.54V2.714h1.682v9.9l9.686-9.9h2.458Zm20.425.017h2.525l-6.55 5.478L69.656 14h-2.607l-6.254-5.033H59.69V14h-1.683V8.967h-1.122L50.648 14h-2.623l7.325-5.791-6.567-5.478h2.525l5.56 4.718h1.139V2.731h1.683v4.718h1.122l5.56-4.718ZM78.72 14.165c-2.343 0-3.982-.148-4.917-.445-.935-.309-1.53-.886-1.782-1.733-.176-.583-.264-1.787-.264-3.614 0-1.858.082-3.063.247-3.613.253-.858.853-1.441 1.799-1.749.946-.308 2.585-.462 4.917-.462 2.343 0 3.976.154 4.9.462.935.297 1.535.874 1.799 1.732.176.583.264 1.793.264 3.63 0 1.849-.083 3.048-.248 3.598-.253.857-.847 1.44-1.782 1.748-.935.298-2.58.446-4.933.446Zm0-1.518c2.596 0 4.125-.193 4.587-.578.462-.385.693-1.617.693-3.696 0-2.09-.231-3.327-.693-3.712-.451-.385-1.98-.577-4.587-.577-2.607 0-4.142.192-4.604.577-.45.385-.676 1.623-.676 3.713 0 2.067.23 3.3.693 3.695.462.385 1.99.578 4.587.578ZM88.44 14V2.714h1.683v4.57h1.683l6.831-4.57h2.888l-7.92 5.313L102.037 14h-2.772l-7.458-5.197h-1.683V14h-1.683Z" fill="#444BD3"/><path d="M.42 31.68v-2.562c.43 0 .737-.138.924-.413.187-.28.338-.726.455-1.337.08-.397.145-.824.196-1.281.051-.457.096-.98.133-1.568.037-.593.072-1.286.105-2.079h4.998v6.678h.728v2.562h-.994V30H1.407v1.68H.42Zm1.743-2.562h4.046v-5.796H3.185c-.014.355-.035.73-.063 1.127-.023.397-.054.793-.091 1.19-.033.397-.072.77-.119 1.12a8.726 8.726 0 0 1-.154.91c-.07.336-.147.623-.231.861a1.4 1.4 0 0 1-.364.588ZM8.661 30v-.903c.28.051.492.04.637-.035.15-.08.259-.21.329-.392.07-.187.128-.418.175-.693.075-.457.142-.961.203-1.512.06-.55.114-1.157.16-1.82.052-.667.104-1.402.155-2.205h5.138V30h-1.022v-6.573h-3.164a75.957 75.957 0 0 1-.245 2.891c-.042.448-.089.861-.14 1.239-.052.378-.105.705-.161.98-.084.415-.196.747-.336.994a.985.985 0 0 1-.61.49c-.27.08-.643.072-1.12-.021Zm13.492 0v-2.849h-1.764c-.206 0-.418-.007-.637-.021a7.036 7.036 0 0 1-.602-.077 2.608 2.608 0 0 1-1.358-.7c-.37-.369-.553-.877-.553-1.526 0-.635.172-1.143.518-1.526.345-.387.763-.64 1.253-.756a3.71 3.71 0 0 1 .679-.091c.233-.01.434-.014.602-.014h2.89L23.19 30h-1.036Zm-5.16 0 2.108-3.171h1.14L18.122 30h-1.127Zm3.34-3.731h1.82v-2.947h-1.82c-.112 0-.269.005-.47.014-.2.01-.39.04-.566.091a1.482 1.482 0 0 0-.462.245c-.15.112-.276.264-.378.455a1.406 1.406 0 0 0-.154.686c0 .378.102.681.308.91.21.224.47.378.784.462.168.037.336.06.504.07.168.01.312.014.434.014Zm9.785 3.941c-.57 0-1.048-.103-1.435-.308a2.088 2.088 0 0 1-.861-.819 2.235 2.235 0 0 1-.287-1.113c0-.41.081-.76.245-1.05.168-.294.394-.534.679-.721a3.41 3.41 0 0 1 1-.427c.383-.093.806-.175 1.268-.245.466-.075.921-.138 1.365-.189.448-.056.84-.11 1.176-.161l-.364.224c.014-.747-.131-1.3-.434-1.659-.304-.36-.831-.539-1.582-.539-.518 0-.957.117-1.316.35-.355.233-.605.602-.75 1.106l-1-.294c.172-.677.52-1.202 1.043-1.575.522-.373 1.201-.56 2.037-.56.69 0 1.276.13 1.757.392.485.257.828.63 1.029 1.12.093.22.154.464.182.735.028.27.042.546.042.826V30h-.917v-1.897l.266.112c-.257.649-.656 1.143-1.197 1.484-.542.34-1.19.511-1.946.511Zm.119-.889c.48 0 .9-.086 1.26-.259.359-.173.648-.408.868-.707.219-.303.361-.644.427-1.022.056-.243.086-.509.09-.798.005-.294.008-.513.008-.658l.392.203c-.35.047-.73.093-1.141.14-.406.047-.808.1-1.204.161-.392.06-.747.133-1.064.217-.215.06-.423.147-.623.259a1.426 1.426 0 0 0-.497.434 1.165 1.165 0 0 0-.19.679c0 .22.054.432.162.637.112.205.289.376.532.511.247.135.574.203.98.203Zm5.497.679v-7.56h5.18v.987h-4.151V30h-1.03Zm9.903.21c-.696 0-1.284-.175-1.764-.525a3.297 3.297 0 0 1-1.092-1.435c-.248-.607-.371-1.286-.371-2.037 0-.765.123-1.447.37-2.044.253-.602.621-1.076 1.107-1.421.485-.345 1.082-.518 1.792-.518.69 0 1.283.175 1.778.525.494.35.872.826 1.134 1.428.266.602.399 1.279.399 2.03 0 .756-.133 1.435-.4 2.037a3.405 3.405 0 0 1-1.147 1.435c-.5.35-1.102.525-1.806.525Zm-3.402 3.15V22.44h.924v5.691h.112v5.229h-1.036Zm3.297-4.109c.527 0 .966-.133 1.316-.399a2.38 2.38 0 0 0 .784-1.085c.177-.462.266-.98.266-1.554 0-.57-.087-1.083-.26-1.54a2.36 2.36 0 0 0-.79-1.085c-.35-.266-.796-.399-1.337-.399-.528 0-.966.128-1.316.385-.346.257-.605.614-.777 1.071-.173.453-.26.975-.26 1.568 0 .583.087 1.106.26 1.568.172.457.434.817.784 1.078.35.261.793.392 1.33.392Zm8.194.959c-.737 0-1.377-.163-1.918-.49a3.325 3.325 0 0 1-1.253-1.379c-.299-.593-.448-1.288-.448-2.086 0-.826.147-1.54.44-2.142a3.278 3.278 0 0 1 1.24-1.393c.537-.327 1.169-.49 1.897-.49.747 0 1.384.173 1.91.518.528.34.927.83 1.198 1.47.27.64.394 1.402.37 2.289h-1.05v-.364c-.018-.98-.23-1.72-.636-2.219-.401-.5-.99-.749-1.764-.749-.812 0-1.435.264-1.87.791-.428.527-.643 1.279-.643 2.254 0 .952.215 1.692.644 2.219.434.523 1.047.784 1.84.784.542 0 1.014-.124 1.415-.371.406-.252.726-.614.959-1.085l.959.371a3.43 3.43 0 0 1-1.323 1.533c-.579.36-1.234.539-1.967.539Zm-2.891-3.703v-.861h5.775v.861h-5.775ZM58.716 30v-7.56h5.18v.987h-4.15V30h-1.03Zm8.384.21c-.57 0-1.048-.103-1.435-.308a2.089 2.089 0 0 1-.861-.819 2.235 2.235 0 0 1-.287-1.113c0-.41.082-.76.245-1.05.168-.294.394-.534.679-.721a3.41 3.41 0 0 1 1.001-.427c.383-.093.805-.175 1.267-.245.467-.075.922-.138 1.365-.189.448-.056.84-.11 1.176-.161l-.364.224c.014-.747-.13-1.3-.434-1.659-.303-.36-.83-.539-1.582-.539-.518 0-.957.117-1.316.35-.355.233-.604.602-.749 1.106l-1.001-.294c.173-.677.52-1.202 1.043-1.575.523-.373 1.202-.56 2.037-.56.69 0 1.276.13 1.757.392.485.257.828.63 1.029 1.12.093.22.154.464.182.735.028.27.042.546.042.826V30h-.917v-1.897l.266.112c-.257.649-.656 1.143-1.197 1.484-.541.34-1.19.511-1.946.511Zm.119-.889c.48 0 .9-.086 1.26-.259.36-.173.649-.408.868-.707a2.41 2.41 0 0 0 .427-1.022c.056-.243.086-.509.091-.798.005-.294.007-.513.007-.658l.392.203c-.35.047-.73.093-1.141.14-.406.047-.807.1-1.204.161a10.4 10.4 0 0 0-1.064.217c-.215.06-.422.147-.623.259-.2.107-.366.252-.497.434a1.165 1.165 0 0 0-.189.679c0 .22.054.432.161.637.112.205.29.376.532.511.247.135.574.203.98.203Zm7.548.679v-6.608h-2.68v-.952h6.39v.952h-2.68V30h-1.03Zm8.065.21c-.751 0-1.393-.17-1.925-.511a3.325 3.325 0 0 1-1.225-1.414c-.284-.602-.427-1.293-.427-2.072 0-.793.145-1.489.434-2.086a3.29 3.29 0 0 1 1.232-1.393c.537-.336 1.174-.504 1.911-.504.756 0 1.4.17 1.932.511.537.336.945.805 1.225 1.407.285.597.427 1.286.427 2.065 0 .793-.142 1.491-.427 2.093a3.272 3.272 0 0 1-1.232 1.4c-.536.336-1.178.504-1.925.504Zm0-.987c.84 0 1.466-.278 1.876-.833.411-.56.616-1.286.616-2.177 0-.915-.207-1.643-.623-2.184-.41-.541-1.033-.812-1.869-.812-.564 0-1.031.128-1.4.385a2.282 2.282 0 0 0-.819 1.057c-.177.448-.266.966-.266 1.554 0 .91.21 1.64.63 2.191.42.546 1.039.819 1.855.819Zm8.524.987c-.696 0-1.284-.175-1.764-.525-.481-.355-.845-.833-1.093-1.435-.247-.607-.37-1.286-.37-2.037 0-.765.123-1.447.37-2.044.252-.602.621-1.076 1.107-1.421.485-.345 1.082-.518 1.791-.518.691 0 1.284.175 1.778.525.495.35.873.826 1.135 1.428.266.602.398 1.279.398 2.03 0 .756-.132 1.435-.398 2.037a3.406 3.406 0 0 1-1.148 1.435c-.5.35-1.102.525-1.806.525Zm-3.402 3.15V22.44h.924v5.691h.112v5.229h-1.036Zm3.297-4.109c.527 0 .965-.133 1.316-.399.35-.266.61-.628.784-1.085.177-.462.266-.98.266-1.554 0-.57-.087-1.083-.26-1.54a2.361 2.361 0 0 0-.79-1.085c-.35-.266-.796-.399-1.337-.399-.528 0-.967.128-1.317.385-.345.257-.604.614-.776 1.071-.173.453-.26.975-.26 1.568 0 .583.087 1.106.26 1.568.172.457.433.817.784 1.078.35.261.793.392 1.33.392Zm7.158.959c-.57 0-1.048-.103-1.435-.308a2.089 2.089 0 0 1-.861-.819 2.235 2.235 0 0 1-.287-1.113c0-.41.081-.76.245-1.05.168-.294.394-.534.679-.721a3.404 3.404 0 0 1 1-.427c.383-.093.806-.175 1.268-.245.466-.075.921-.138 1.365-.189.448-.056.84-.11 1.176-.161l-.364.224c.014-.747-.131-1.3-.434-1.659-.304-.36-.831-.539-1.582-.539-.518 0-.957.117-1.316.35-.355.233-.605.602-.75 1.106l-1-.294c.172-.677.52-1.202 1.043-1.575.522-.373 1.201-.56 2.037-.56.69 0 1.276.13 1.757.392.485.257.828.63 1.029 1.12.093.22.154.464.182.735.028.27.042.546.042.826V30h-.917v-1.897l.266.112c-.257.649-.656 1.143-1.197 1.484-.542.34-1.19.511-1.946.511Zm.119-.889c.48 0 .9-.086 1.26-.259.359-.173.648-.408.868-.707.219-.303.361-.644.427-1.022.056-.243.086-.509.091-.798.004-.294.007-.513.007-.658l.392.203c-.35.047-.731.093-1.141.14-.406.047-.808.1-1.204.161a10.4 10.4 0 0 0-1.064.217c-.215.06-.423.147-.623.259a1.426 1.426 0 0 0-.497.434 1.165 1.165 0 0 0-.19.679c0 .22.054.432.162.637.112.205.289.376.532.511.247.135.574.203.98.203Z" fill="#444BD3" fill-opacity=".5"/></svg>