<svg width="376" height="275" fill="none" xmlns="http://www.w3.org/2000/svg"><g filter="url(#a)" fill="#fff"><path d="m331.491 168.176-22.461-5.563c22.587-6.475 36.752-26.203 32.303-46.322-3.41-15.421-17.116-28.07-33.909-32.143-7.12-1.727-14.796-1.913-22.478-.113-16.918 3.96-31.146 11.82-42.694 20.52-.203.153-.407.3-.609.453a136.137 136.137 0 0 0-5.115 4.096c-.664.552-1.329 1.092-1.988 1.659-.715.623-1.382 1.241-2.069 1.864-1.228 1.096-2.464 2.159-3.675 3.31-5.832-17.284-16.33-37.967-35.218-54.067-6.004-5.119-12.911-8.47-20.032-10.198-16.792-4.074-34.77.89-44.866 13.034-10.972 13.195-10.313 32.058.088 47.303a53.465 53.465 0 0 0 7.345 8.772l-49.207-11.936-13.726 56.584c-.277 1.14.494 2.305 1.72 2.602l116.504 28.261 14.135-58.269 33.883 8.219-14.135 58.269 116.504 28.262c1.226.297 2.444-.385 2.721-1.525l13.726-56.584-26.747-6.488Zm-138.736-48.737c-13.616-3.303-25.179-8.431-34.366-15.243-4.65-3.447-7.887-8.2-8.882-13.038-.452-2.194-.807-6.359 1.892-9.606 3.163-3.805 9.842-5.504 15.881-4.039a17.997 17.997 0 0 1 7.499 3.832c11.606 9.892 19.114 22.485 23.977 34.195a116.41 116.41 0 0 1 2.103 5.599 137.078 137.078 0 0 1-8.104-1.7Zm117.944 10.821c-3.102 3.844-8.157 6.585-13.869 7.519-11.287 1.845-23.914 1.105-37.531-2.198-2.44-.592-4.775-1.26-7.058-1.947-.314-.111-.635-.2-.946-.319 10.205-9.545 24.212-19.325 41.438-23.357 2.8-.656 5.635-.646 8.422.031 6.038 1.464 11.195 6.034 12.263 10.866.913 4.122-1.312 7.662-2.719 9.405ZM79.37 284.292c-4.029 16.604 7.196 33.578 25.068 37.914l53.286 12.926 29.816-122.914-85.647-20.777-22.524 92.851Zm112.237 59.059 53.287 12.926c17.872 4.336 35.625-5.609 39.653-22.213l22.524-92.851-85.648-20.776-29.816 122.914Z"/></g><defs><filter id="a" x=".724" y=".873" width="429.914" height="451.82" filterUnits="userSpaceOnUse" color-interpolation-filters="sRGB"><feFlood flood-opacity="0" result="BackgroundImageFix"/><feColorMatrix in="SourceAlpha" values="0 0 0 0 0 0 0 0 0 0 0 0 0 0 0 0 0 0 127 0" result="hardAlpha"/><feOffset dy="23"/><feGaussianBlur stdDeviation="36.2"/><feComposite in2="hardAlpha" operator="out"/><feColorMatrix values="0 0 0 0 0.856006 0 0 0 0 0.735491 0 0 0 0 0.735491 0 0 0 0.35 0"/><feBlend in2="BackgroundImageFix" result="effect1_dropShadow_279_623"/><feBlend in="SourceGraphic" in2="effect1_dropShadow_279_623" result="shape"/></filter></defs></svg>