<svg width="243" height="265" fill="none" xmlns="http://www.w3.org/2000/svg"><g filter="url(#a)" fill="#fff"><path d="m252.161 92.948-17.906 3.841c13.86-12.654 17.17-32 7.091-45.091-7.725-10.035-21.831-14.432-35.188-11.498a37.88 37.88 0 0 0-16.046 7.816c-10.686 8.828-18.118 19.554-23.353 29.948-.092.183-.187.362-.278.544a109.63 109.63 0 0 0-2.235 4.781c-.284.635-.572 1.262-.846 1.907-.296.705-.558 1.39-.833 2.084-.498 1.23-1.013 2.44-1.48 3.703-10.09-10.54-24.671-21.917-43.652-27.007-6.034-1.62-12.103-1.634-17.768-.39-13.357 2.933-24.454 12.866-27.471 25.26-3.28 13.466 3.668 26.974 16.312 34.424a41.799 41.799 0 0 0 8.244 3.808l-39.141 8.596 9.663 46.039c.195.927 1.144 1.505 2.12 1.291l92.669-20.352-9.951-47.41 26.952-5.919 9.951 47.41 92.67-20.352c.976-.214 1.609-1.139 1.414-2.067l-9.663-46.038-21.275 4.672Zm-115.536 13.249c-10.83 2.379-20.826 2.707-29.708.973-4.495-.877-8.433-3.201-10.804-6.375-1.075-1.44-2.758-4.349-1.952-7.662.945-3.883 5.118-7.467 9.921-8.522a13.92 13.92 0 0 1 6.656.156c11.663 3.127 21.336 9.662 28.821 16.482a92.264 92.264 0 0 1 3.421 3.34 106.122 106.122 0 0 1-6.355 1.608Zm87.705-33.56c-.888 3.89-3.546 7.662-7.293 10.35-7.403 5.31-16.65 9.208-27.481 11.586-1.941.426-3.833.76-5.695 1.062-.261.03-.52.078-.783.1 3.988-10.538 10.603-22.583 21.484-31.573a14.102 14.102 0 0 1 6.009-2.937c4.802-1.055 10.044.461 12.465 3.605 2.066 2.682 1.697 6.042 1.294 7.807Zm-111.818 193.48c2.836 13.51 16.66 21.93 30.876 18.808l42.385-9.309-20.991-100.006-68.127 14.961 15.857 75.546Zm100.213 3.58 42.386-9.308c14.217-3.122 23.442-16.604 20.607-30.114l-15.857-75.546-68.127 14.962 20.991 100.006Z"/></g><defs><filter id="a" x=".37" y=".248" width="340.006" height="360.752" filterUnits="userSpaceOnUse" color-interpolation-filters="sRGB"><feFlood flood-opacity="0" result="BackgroundImageFix"/><feColorMatrix in="SourceAlpha" values="0 0 0 0 0 0 0 0 0 0 0 0 0 0 0 0 0 0 127 0" result="hardAlpha"/><feOffset dy="18.184"/><feGaussianBlur stdDeviation="28.621"/><feComposite in2="hardAlpha" operator="out"/><feColorMatrix values="0 0 0 0 0.856006 0 0 0 0 0.735491 0 0 0 0 0.735491 0 0 0 0.35 0"/><feBlend in2="BackgroundImageFix" result="effect1_dropShadow_303_1054"/><feBlend in="SourceGraphic" in2="effect1_dropShadow_303_1054" result="shape"/></filter></defs></svg>